<svg width="97" height="97" viewBox="0 0 97 97" fill="none" xmlns="http://www.w3.org/2000/svg">
<path d="M38.2814 71.0259C37.7034 71.0259 37.2044 70.5927 37.1361 70.0046C36.8216 67.3012 35.5821 64.8095 33.6455 62.9886C29.2884 58.8953 26.7896 53.1195 26.7896 47.1425C26.7896 41.3803 29.021 35.9506 33.0724 31.8537C37.1207 27.7602 42.5183 25.4682 48.271 25.3999C60.179 25.257 70.0462 34.8219 70.2734 46.7181C70.3909 52.8491 67.8981 58.7755 63.434 62.9777C61.479 64.8175 60.233 67.3122 59.9259 70.0025C59.8536 70.6361 59.2812 71.091 58.6479 71.0185C58.0143 70.9462 57.5596 70.3738 57.6318 69.7404C58.0008 66.5084 59.4994 63.5097 61.8514 61.2963C65.8414 57.5401 68.0696 52.2427 67.9648 46.7625C67.7632 36.2081 59.0674 27.7075 48.5312 27.7075C48.4537 27.7075 48.3765 27.708 48.2985 27.7089C37.7115 27.8348 29.0986 36.5528 29.0986 47.1428C29.0986 52.5635 31.2751 57.5937 35.227 61.3064C37.5601 63.5 39.0526 66.4944 39.4299 69.7381C39.5036 70.3715 39.0499 70.9446 38.4165 71.0183C38.371 71.0233 38.3259 71.0259 38.2814 71.0259Z" fill="#FF8F8F"/>
<path d="M48.5333 87.2032C45.5124 87.2032 42.6709 86.0263 40.5322 83.889C38.8688 82.2258 37.7805 80.1276 37.3841 77.8211C37.276 77.1926 37.6979 76.5957 38.3264 76.4879C38.9563 76.3791 39.5519 76.8019 39.6597 77.4302C39.9746 79.2638 40.841 80.9325 42.1645 82.2561C43.8667 83.9572 46.1287 84.8942 48.5331 84.8942C52.9302 84.8942 56.6621 81.755 57.4067 77.4297C57.515 76.8012 58.1114 76.3805 58.7404 76.4877C59.3689 76.5959 59.7906 77.1931 59.6825 77.8214C58.7464 83.2578 54.0577 87.2032 48.5333 87.2032Z" fill="#FFE4BB"/>
<path d="M48.5346 61.2994C46.792 61.2994 45.2565 60.2507 44.6224 58.6276C44.3904 58.0338 44.6838 57.3641 45.2777 57.1321C45.8718 56.9002 46.5412 57.1935 46.7733 57.7874C47.0587 58.5182 47.7502 58.9901 48.5348 58.9901C49.0403 58.9901 49.515 58.7937 49.8718 58.4372C50.056 58.2529 50.2027 58.0289 50.2955 57.7897C50.5264 57.1951 51.1958 56.9005 51.7895 57.1309C52.3841 57.3616 52.6789 58.0305 52.4482 58.6249C52.2374 59.1684 51.9199 59.6542 51.505 60.0696C50.7114 60.8628 49.6568 61.2994 48.5346 61.2994Z" fill="#FF8F8F"/>
<path d="M55.0847 55.4868C54.4472 55.4868 53.9302 54.9698 53.9302 54.3323V52.3948C53.9302 51.7572 54.4472 51.2402 55.0847 51.2402C55.7222 51.2402 56.2392 51.7572 56.2392 52.3948V54.3323C56.2392 54.97 55.7222 55.4868 55.0847 55.4868Z" fill="#FF8F8F"/>
<path d="M41.9846 55.4869C41.3471 55.4869 40.8301 54.9699 40.8301 54.3324V52.3949C40.8301 51.7574 41.3471 51.2404 41.9846 51.2404C42.6221 51.2404 43.1391 51.7574 43.1391 52.3949V54.3324C43.1391 54.9702 42.6221 55.4869 41.9846 55.4869Z" fill="#FF8F8F"/>
<path d="M59.3409 78.7805H37.7264C36.0454 78.7805 34.6777 77.4129 34.6777 75.7319V71.7654C34.6777 70.0844 36.0454 68.7168 37.7264 68.7168H59.3409C61.0218 68.7168 62.3895 70.0844 62.3895 71.7654V75.7319C62.3895 77.4129 61.0218 78.7805 59.3409 78.7805ZM37.7264 71.0258C37.3186 71.0258 36.9868 71.3576 36.9868 71.7654V75.7319C36.9868 76.1397 37.3186 76.4715 37.7264 76.4715H59.3409C59.7486 76.4715 60.0804 76.1397 60.0804 75.7319V71.7654C60.0804 71.3576 59.7486 71.0258 59.3409 71.0258H37.7264Z" fill="#FFE4BB"/>
<path d="M83.4619 47.9626H76.4768C75.8393 47.9626 75.3223 47.4456 75.3223 46.8081C75.3223 46.1706 75.8393 45.6536 76.4768 45.6536H83.4619C84.0994 45.6536 84.6164 46.1706 84.6164 46.8081C84.6164 47.4456 84.0997 47.9626 83.4619 47.9626Z" fill="#FFE4BB"/>
<path d="M20.5899 47.9626H13.5378C12.9003 47.9626 12.3833 47.4456 12.3833 46.8081C12.3833 46.1706 12.9003 45.6536 13.5378 45.6536H20.5899C21.2274 45.6536 21.7444 46.1706 21.7444 46.8081C21.7444 47.4456 21.2274 47.9626 20.5899 47.9626Z" fill="#FFE4BB"/>
<path d="M48.5002 20.086C47.8627 20.086 47.3457 19.569 47.3457 18.9315V11.6545C47.3457 11.017 47.8627 10.5 48.5002 10.5C49.1378 10.5 49.6547 11.017 49.6547 11.6545V18.9315C49.6547 19.5692 49.138 20.086 48.5002 20.086Z" fill="#FFE4BB"/>
<path d="M73.128 72.5907C72.8324 72.5907 72.5371 72.478 72.3115 72.2526L67.4925 67.4336C67.0416 66.9827 67.0416 66.2517 67.4925 65.8009C67.9435 65.3502 68.6743 65.3502 69.1252 65.8009L73.9442 70.6199C74.3952 71.0709 74.3952 71.8019 73.9442 72.2526C73.7189 72.478 73.4235 72.5907 73.128 72.5907Z" fill="#FFE4BB"/>
<path d="M28.7913 28.2542C28.4957 28.2542 28.2004 28.1415 27.9748 27.9162L22.8656 22.8069C22.4146 22.356 22.4146 21.625 22.8656 21.1742C23.3167 20.7235 24.0476 20.7235 24.4983 21.1742L29.6075 26.2834C30.0585 26.7344 30.0585 27.4654 29.6075 27.9162C29.3821 28.1413 29.0868 28.2542 28.7913 28.2542Z" fill="#FFE4BB"/>
<path d="M23.872 72.5907C23.5765 72.5907 23.2811 72.478 23.0555 72.2526C22.6045 71.8017 22.6045 71.0707 23.0555 70.6199L27.908 65.7675C28.3589 65.3168 29.0897 65.3168 29.5407 65.7675C29.9916 66.2184 29.9916 66.9495 29.5407 67.4002L24.6882 72.2526C24.4629 72.478 24.1676 72.5907 23.872 72.5907Z" fill="#FFE4BB"/>
<path d="M68.2421 28.2207C67.9466 28.2207 67.6512 28.108 67.4256 27.8827C66.9747 27.4317 66.9747 26.7007 67.4256 26.2499L72.5014 21.1742C72.9524 20.7235 73.6832 20.7235 74.1341 21.1742C74.5851 21.6252 74.5851 22.3562 74.1341 22.8069L69.0584 27.8827C68.833 28.1078 68.5377 28.2207 68.2421 28.2207Z" fill="#FFE4BB"/>
</svg>
