<svg width="97" height="97" viewBox="0 0 97 97" fill="none" xmlns="http://www.w3.org/2000/svg">
<path d="M31.2323 63.3116C30.6384 63.3116 30.1572 62.8315 30.1572 62.2376V62.2354C30.1572 62.1243 30.1744 62.014 30.2082 61.9082C30.815 60.0102 32.1449 58.2211 33.5528 56.3265C34.6017 54.9154 35.6864 53.4556 36.5697 51.8361C38.5034 48.2902 43.1912 48.7609 47.7242 49.2161C49.3364 49.378 51.0037 49.5455 52.5589 49.5455C53.9496 49.5455 55.4046 49.3333 56.8119 49.1279C59.6732 48.711 62.6316 48.2791 65.0026 49.7188C70.0945 52.8112 73.4531 56.5678 74.7157 60.5822C74.8937 61.1485 74.5791 61.7521 74.0125 61.9303C73.4453 62.109 72.8424 61.7934 72.6644 61.2272C71.5764 57.7682 68.4591 54.3335 63.8865 51.5563C62.1769 50.5182 59.7222 50.8763 57.1222 51.2555C55.6392 51.4719 54.1055 51.6957 52.5586 51.6957C50.8957 51.6957 49.1741 51.5226 47.509 51.3556C43.323 50.9354 39.7079 50.5718 38.4571 52.8654C37.5016 54.6172 36.3712 56.1382 35.2783 57.6089C33.9862 59.3474 32.7656 60.9898 32.2633 62.5403C32.1322 62.9861 31.7202 63.3116 31.2323 63.3116Z" fill="#FF8F8F"/>
<path d="M52.56 51.6948C51.9661 51.6948 51.4849 51.2136 51.4849 50.6197V48.3926C51.4849 42.0534 54.3551 36.1854 59.3597 32.2933L63.576 29.0132C64.0451 28.6486 64.7203 28.7331 65.0848 29.2016C65.4492 29.6703 65.3652 30.3457 64.8964 30.7103L60.6799 33.9907C56.2028 37.4725 53.635 42.7217 53.635 48.3926V50.6197C53.635 51.2136 53.1538 51.6948 52.56 51.6948Z" fill="#FF8F8F"/>
<path d="M52.5598 49.8929C51.9659 49.8929 51.4847 49.4117 51.4847 48.8178V39.9526C51.4847 33.3542 47.9674 27.4676 42.0755 24.206L39.93 23.0184C39.4105 22.731 39.2226 22.0767 39.5103 21.5572C39.7975 21.0375 40.4517 20.8491 40.9716 21.1374L43.117 22.325C49.703 25.9706 53.6349 32.5607 53.6349 39.9526V48.8178C53.6349 49.4117 53.1537 49.8929 52.5598 49.8929Z" fill="#FF8F8F"/>
<path d="M23.0782 64.7472C22.631 64.7472 22.2134 64.4659 22.061 64.0191C21.8689 63.4573 22.1691 62.8462 22.7309 62.6544C23.0133 62.5578 23.3139 62.5039 23.6239 62.494L30.1142 62.3689C30.1213 62.3686 30.1284 62.3687 30.1355 62.3687C30.7197 62.3687 31.1986 62.8365 31.21 63.4229C31.2214 64.0168 30.7494 64.5072 30.1559 64.5186L23.6796 64.6433C23.5964 64.6461 23.5063 64.6616 23.4257 64.6891C23.3106 64.7287 23.1934 64.7472 23.0782 64.7472Z" fill="#FFE4BB"/>
<path d="M58.2364 79.9221H23.7103C23.3704 79.9221 23.038 79.8659 22.7223 79.7552C22.1622 79.5587 21.8672 78.9448 22.0639 78.3847C22.2607 77.8246 22.8748 77.5296 23.4344 77.7263C23.5205 77.7566 23.6133 77.7719 23.7101 77.7719H58.2362C59.5188 77.7719 60.776 77.418 61.8717 76.7484L80.467 65.3756C81.1996 64.928 81.7678 64.2384 82.0667 63.4338C82.2295 62.9954 82.1906 62.5241 81.9573 62.1059C81.7139 61.67 81.2941 61.3643 80.8058 61.2669C78.1461 60.7373 75.3639 61.1484 72.9721 62.4245L64.3694 67.0124C63.8457 67.2912 63.1943 67.0934 62.9148 66.5694C62.6355 66.0454 62.8338 65.3944 63.3578 65.1148L71.9602 60.527C74.7892 59.0178 78.0798 58.5309 81.2257 59.1582C82.3329 59.3785 83.2839 60.071 83.8348 61.0577C84.3723 62.0207 84.4625 63.1595 84.0821 64.1827C83.6159 65.4374 82.7302 66.5124 81.5881 67.2102L62.9929 78.5829C61.5596 79.4591 59.9149 79.9221 58.2364 79.9221Z" fill="#FFE4BB"/>
<path d="M58.2336 71.0516C57.9775 71.0516 57.7227 71.0378 57.4767 71.0107C52.9486 70.5119 45.3219 69.669 45.3219 69.669L45.5581 67.5319C45.5583 67.5319 53.1845 68.3748 57.7126 68.8737C57.8805 68.8922 58.056 68.9016 58.2336 68.9016C59.7026 68.9016 61.112 68.203 62.0033 67.0331C62.2323 66.7327 62.4101 66.3968 62.5318 66.0345C62.6548 65.6735 62.7165 65.2992 62.7165 64.9173C62.7165 63.8534 61.919 62.963 60.8613 62.8465L39.4762 60.5009C36.1888 60.1422 33.0141 61.4884 30.9839 64.1037C30.6201 64.5726 29.9449 64.658 29.4753 64.2936C29.0064 63.9295 28.9215 63.2542 29.2855 62.785C31.7773 59.5754 35.6732 57.9232 39.71 58.3636L61.0961 60.7094C63.2459 60.9464 64.8664 62.7556 64.8664 64.9173C64.8664 65.536 64.766 66.144 64.568 66.7243C64.3728 67.3049 64.0849 67.8487 63.7131 68.3361C62.4181 70.0365 60.3696 71.0516 58.2336 71.0516Z" fill="#FFE4BB"/>
<path d="M20.5879 82.4998H16.0656C14.0995 82.4998 12.5 80.9003 12.5 78.9342V63.7853C12.5 61.8191 14.0995 60.2196 16.0656 60.2196H20.5879C22.554 60.2196 24.1536 61.8191 24.1536 63.7853V78.9342C24.1536 80.9001 22.554 82.4998 20.5879 82.4998ZM16.0656 62.3696C15.2851 62.3696 14.6502 63.0045 14.6502 63.785V78.934C14.6502 79.7145 15.2851 80.3494 16.0656 80.3494H20.5879C21.3684 80.3494 22.0034 79.7145 22.0034 78.934V63.785C22.0034 63.0045 21.3684 62.3696 20.5879 62.3696H16.0656Z" fill="#FFE4BB"/>
<path d="M66.0786 39.9423C65.6161 39.9423 65.1482 39.9068 64.6782 39.8337L55.2148 38.3632C54.9286 38.3189 54.6728 38.1609 54.5044 37.9252C54.3365 37.6893 54.2704 37.3959 54.3216 37.111L55.8612 28.5352C56.5226 24.8511 59.3236 22.0066 62.9972 21.2884L75.4906 18.8462C76.4124 18.6669 77.3325 18.98 77.9519 19.6855C78.5714 20.3912 78.7634 21.3441 78.4658 22.2345L74.6011 33.7911C73.3555 37.5176 69.8999 39.9423 66.0786 39.9423ZM56.6326 36.4076L65.0083 37.7091C68.3221 38.2233 71.499 36.2894 72.562 33.109L76.4268 21.5524C76.4997 21.3346 76.4014 21.1781 76.3365 21.1039C76.2715 21.03 76.1292 20.9119 75.9032 20.9562L63.4098 23.3984C60.6135 23.9449 58.4812 26.1104 57.9776 28.9149L56.6326 36.4076Z" fill="#FF8F8F"/>
<path d="M40.3836 33.0996C37.1527 33.0996 34.1702 31.379 32.5535 28.4913L26.3341 17.3841C25.8752 16.5644 25.8862 15.5926 26.3633 14.7837C26.8379 13.9791 27.6769 13.5 28.6101 13.5C28.6148 13.5 28.6197 13.5 28.6244 13.5L40.8102 13.5649C45.2153 13.5884 48.9319 16.7601 49.6479 21.1067L51.2042 30.5563C51.2513 30.8419 51.1812 31.1345 51.0096 31.3678C50.8382 31.6009 50.5798 31.7553 50.2931 31.7955L41.6651 33.0093C41.2355 33.0699 40.8071 33.0996 40.3836 33.0996ZM28.6103 15.6502C28.3826 15.6502 28.2652 15.7915 28.2153 15.876C28.1654 15.9609 28.0978 16.1331 28.2103 16.3337L34.4295 27.4409C35.8215 29.9272 38.5437 31.2766 41.3658 30.8801L48.9039 29.8197L47.5265 21.4561C46.9817 18.1472 44.1524 15.733 40.7992 15.7151L28.6135 15.6502C28.6122 15.6502 28.6111 15.6502 28.6103 15.6502Z" fill="#FF8F8F"/>
</svg>
