<svg width="33" height="32" viewBox="0 0 33 32" fill="none" xmlns="http://www.w3.org/2000/svg">
<path d="M24.3351 14.9353H8.66497C8.11259 14.9353 7.59413 14.667 7.27564 14.2155C6.9567 13.7645 6.8771 13.1863 7.06167 12.6656C8.47451 8.67864 12.2678 6 16.5009 6C20.7335 6 24.5264 8.67864 25.9393 12.6656C26.1238 13.1863 26.0442 13.7645 25.7253 14.2155C25.4059 14.667 24.8879 14.9353 24.3351 14.9353ZM11.6399 11.5328H21.3601C20.1327 10.205 18.3824 9.40293 16.5005 9.40293C14.6181 9.40293 12.8673 10.205 11.6399 11.5328Z" fill="#414249"/>
<path d="M24.3443 20.4671H8.6561C7.93407 20.4671 7.29032 20.0111 7.05101 19.3298C6.67687 18.2653 6.4873 17.1492 6.4873 16.0123C6.4873 14.8624 6.68093 13.7359 7.0623 12.6637C7.30343 11.9856 7.94539 11.5327 8.66515 11.5327H24.3353C25.0555 11.5327 25.6979 11.9865 25.9386 12.6651C26.3195 13.739 26.5131 14.8651 26.5131 16.0123C26.5131 17.1492 26.3235 18.2653 25.9494 19.3298C25.7101 20.0115 25.0668 20.4671 24.3443 20.4671ZM9.97347 17.0646H23.0274C23.0826 16.7185 23.1106 16.3675 23.1106 16.0123C23.1106 15.6491 23.0812 15.2894 23.0233 14.9352H9.97755C9.91965 15.289 9.89069 15.6486 9.89069 16.0123C9.89023 16.3675 9.91782 16.7185 9.97347 17.0646Z" fill="#414249"/>
<path d="M17.1556 25.9999H15.8459C15.802 25.9999 15.7577 25.9981 15.7138 25.995C11.763 25.6878 8.36279 23.0711 7.05084 19.3289C6.86852 18.8082 6.94951 18.2318 7.26845 17.7817C7.58739 17.3316 8.10493 17.0642 8.6564 17.0642H24.3446C24.8961 17.0642 25.4136 17.3316 25.7325 17.7817C26.0515 18.2314 26.1329 18.8082 25.9501 19.3289C24.6382 23.0711 21.238 25.6873 17.2877 25.995C17.2438 25.9981 17.1999 25.9999 17.1556 25.9999ZM15.916 22.597H17.0859C18.7656 22.4504 20.2907 21.6701 21.3877 20.4671H11.6137C12.7103 21.6705 14.2358 22.4504 15.916 22.597Z" fill="#414249"/>
<path d="M24.3351 13.2342H8.66504C9.80734 10.0104 12.8836 7.70142 16.5005 7.70142C20.1166 7.70142 23.1928 10.0104 24.3351 13.2342Z" fill="#414249"/>
<path d="M24.8113 16.0125C24.8113 16.9779 24.6467 17.904 24.344 18.7658H8.65581C8.35316 17.904 8.18848 16.9775 8.18848 16.0125C8.18848 15.038 8.35588 14.1029 8.66487 13.2339H24.335C24.6435 14.1029 24.8113 15.0385 24.8113 16.0125Z" fill="#F21616"/>
<path d="M24.3444 18.7661C23.2786 21.8062 20.4936 24.0388 17.1554 24.2989H15.8457C12.5071 24.0393 9.7221 21.8067 8.65625 18.7661H24.3444Z" fill="#FAE41D"/>
</svg>
