<svg width="109" height="81" viewBox="0 0 109 81" fill="none" xmlns="http://www.w3.org/2000/svg">
<path d="M80.9555 5.84083C79.9782 9.21514 78.8303 12.5173 77.5117 15.7474C75.1153 15.0923 69.3759 13.2365 66.9271 12.6387C63.7467 11.8642 62.5931 14.5681 64.4917 16.7476C66.3612 18.9015 71.0486 23.2924 72.9442 25.4177C70.9535 29.0391 68.7061 32.5389 66.1468 35.92C64.1553 38.5347 67.5321 41.8288 70.3232 41.1013C74.5905 39.9648 78.7354 38.1276 82.8833 36.3447C86.4258 40.1193 90.0482 43.835 93.8015 47.4074C95.439 51.3702 102.076 49.4208 100.671 45.1458C99.1971 40.6296 97.723 36.1136 96.2213 31.599C98.7447 31.0497 101.309 30.743 103.981 30.8657C108.211 31.0374 108.461 25.0915 104.762 23.9651C100.665 22.6976 96.5688 21.4301 92.4725 20.1626C90.9279 15.3783 89.4095 10.5653 87.9464 5.74921C86.9451 2.24064 81.9313 2.43939 80.9555 5.84083Z" fill="#CEE8FF"/>
<path d="M32.3328 49.3898C31.6615 51.7075 30.873 53.9756 29.9674 56.1942C28.3214 55.7443 24.3792 54.4696 22.6973 54.059C20.5128 53.527 19.7204 55.3842 21.0245 56.8812C22.3086 58.3606 25.5282 61.3766 26.8302 62.8363C25.4628 65.3237 23.9192 67.7276 22.1613 70.0499C20.7934 71.8458 23.1128 74.1084 25.0299 73.6087C27.9609 72.8281 30.8078 71.5662 33.6569 70.3416C36.09 72.9342 38.5782 75.4864 41.1562 77.9401C42.2808 80.662 46.8396 79.323 45.8746 76.3867C44.8621 73.2847 43.8496 70.1828 42.8182 67.082C44.5514 66.7047 46.313 66.4941 48.1483 66.5783C51.0533 66.6962 51.2254 62.6123 48.6841 61.8386C45.8705 60.968 43.0569 60.0974 40.2433 59.2268C39.1824 55.9407 38.1394 52.6348 37.1345 49.3269C36.4468 46.917 33.003 47.0535 32.3328 49.3898Z" fill="#CEE8FF"/>
<path d="M12.3328 2.63813C11.6615 4.95579 10.873 7.2239 9.96738 9.44254C8.3214 8.99257 4.37921 7.71786 2.69729 7.30729C0.512803 6.7753 -0.279571 8.63248 1.02452 10.1295C2.30856 11.6089 5.52816 14.6249 6.83017 16.0846C5.46284 18.572 3.91922 20.9758 2.16129 23.2982C0.793435 25.0941 3.11283 27.3567 5.02988 26.857C7.96092 26.0764 10.8078 24.8145 13.6569 23.5899C16.09 26.1825 18.5782 28.7347 21.1562 31.1884C22.2808 33.9102 26.8396 32.5713 25.8746 29.635C24.8621 26.533 23.8496 23.4311 22.8182 20.3303C24.5514 19.953 26.313 19.7423 28.1483 19.8266C31.0533 19.9445 31.2254 15.8606 28.6841 15.0869C25.8705 14.2163 23.0569 13.3457 20.2433 12.4751C19.1824 9.18897 18.1394 5.88313 17.1345 2.57519C16.4468 0.165309 13.003 0.301826 12.3328 2.63813Z" fill="#CEE8FF"/>
</svg>
