<svg width="97" height="97" viewBox="0 0 97 97" fill="none" xmlns="http://www.w3.org/2000/svg">
<path d="M54.9545 46.3344C54.7432 46.3344 54.5292 46.2745 54.3395 46.1496C48.2502 42.1414 42.6651 46.0816 42.609 46.1218C42.1072 46.4842 41.406 46.3719 41.0433 45.8687C40.6809 45.3661 40.7939 44.6644 41.2961 44.3013C41.3666 44.2501 43.0579 43.0425 45.6473 42.4382C48.0508 41.8769 51.7238 41.7408 55.5718 44.2735C56.0895 44.6141 56.2331 45.3102 55.8928 45.8285C55.6773 46.1563 55.3195 46.3344 54.9545 46.3344Z" fill="#FFE4BB"/>
<path d="M65.7008 76.9718C65.4115 76.9718 65.1224 76.8604 64.9028 76.6381L50.7949 62.3385C50.1935 61.729 49.3912 61.3933 48.5357 61.3933C47.6801 61.3933 46.8776 61.729 46.2764 62.3385L32.1685 76.6381C31.7332 77.0793 31.0232 77.0833 30.5824 76.6479C30.1417 76.2123 30.1374 75.5014 30.5726 75.0601L44.6805 60.7605C45.7065 59.7206 47.0756 59.1478 48.5359 59.1478C49.9961 59.1478 51.3651 59.7206 52.3913 60.7605L66.4992 75.0601C66.9343 75.5014 66.9301 76.2123 66.4893 76.6479C66.2704 76.864 65.9855 76.9718 65.7008 76.9718Z" fill="#FFE4BB"/>
<path d="M51.3248 73.3204C49.4049 73.3204 47.8433 71.7568 47.8433 69.8349C47.8433 67.913 49.4051 66.3494 51.3248 66.3494C53.2448 66.3494 54.8065 67.913 54.8065 69.8349C54.8065 71.7568 53.2448 73.3204 51.3248 73.3204ZM51.3248 68.5947C50.6417 68.5947 50.0863 69.1511 50.0863 69.8346C50.0863 70.5182 50.642 71.0746 51.3248 71.0746C52.0075 71.0746 52.5634 70.5182 52.5634 69.8346C52.5634 69.1511 52.0078 68.5947 51.3248 68.5947Z" fill="#FFE4BB"/>
<path d="M41.8849 73.106C41.4733 73.106 41.0772 72.8785 40.8807 72.4849C40.6039 71.93 40.8286 71.2557 41.3824 70.9786L41.8116 70.764C42.366 70.4866 43.0392 70.7116 43.3162 71.2662C43.593 71.8211 43.3682 72.4954 42.8144 72.7725L42.3854 72.9872C42.2245 73.0678 42.0534 73.106 41.8849 73.106Z" fill="#FFE4BB"/>
<path d="M65.5932 77.0661C64.9736 77.0661 64.4716 76.5635 64.4716 75.9433V65.5518C64.4716 60.6159 61.8271 56.1866 57.7343 54.2683L51.9202 51.5427C50.9568 51.0909 50.3584 50.1166 50.3584 48.9999C50.3584 47.8832 50.9568 46.9089 51.92 46.4573L57.7343 43.7317C61.8271 41.8134 64.4716 37.3841 64.4716 32.4483V22.0567C64.4716 21.4365 64.9736 20.934 65.5932 20.934C66.2127 20.934 66.7147 21.4365 66.7147 22.0567V32.4483C66.7147 38.2518 63.563 43.4791 58.6854 45.7655L52.8714 48.4911C52.6143 48.6115 52.6015 48.9361 52.6015 49.0001C52.6015 49.0641 52.6145 49.3888 52.8716 49.5094L58.6854 52.235C63.563 54.5214 66.7147 59.7487 66.7147 65.5523V75.9438C66.7147 76.5635 66.2127 77.0661 65.5932 77.0661Z" fill="#FF8F8F"/>
<path d="M31.4062 77.066C30.7867 77.066 30.2847 76.5635 30.2847 75.9433V65.5517C30.2847 59.7482 33.4364 54.5211 38.314 52.2345L44.1281 49.5089C44.3852 49.3886 44.3979 49.0639 44.3979 48.9996C44.3979 48.9359 44.3849 48.6112 44.1278 48.4906L38.314 45.765C33.4364 43.4784 30.2847 38.2513 30.2847 32.4478V22.0562C30.2847 21.436 30.7867 20.9335 31.4062 20.9335C32.0257 20.9335 32.5278 21.436 32.5278 22.0562V32.4478C32.5278 37.3836 35.1723 41.8127 39.2651 43.7313L45.0792 46.4568C46.0426 46.9086 46.641 47.883 46.641 48.9994C46.641 50.1163 46.0426 51.0907 45.0794 51.5422L39.2651 54.2678C35.1723 56.1864 32.5278 60.6154 32.5278 65.5513V75.9429C32.5278 76.5635 32.0257 77.066 31.4062 77.066Z" fill="#FF8F8F"/>
<path d="M75.3585 86.5001H21.6415C19.802 86.5001 18.3052 85.0017 18.3052 83.1599V78.174C18.3052 76.3325 19.802 74.834 21.6415 74.834H75.3585C77.198 74.834 78.6948 76.3325 78.6948 78.174V83.1599C78.6948 85.0017 77.198 86.5001 75.3585 86.5001ZM21.6415 77.0796C21.0386 77.0796 20.5483 77.5707 20.5483 78.174V83.1599C20.5483 83.7635 21.0388 84.2546 21.6415 84.2546H75.3585C75.9614 84.2546 76.4517 83.7635 76.4517 83.1599V78.174C76.4517 77.5704 75.9612 77.0796 75.3585 77.0796H21.6415Z" fill="#FFE4BB"/>
<path d="M75.3585 23.1659H21.6415C19.802 23.1659 18.3052 21.6675 18.3052 19.8259V14.84C18.3052 12.9984 19.802 11.5 21.6415 11.5H75.3585C77.198 11.5 78.6948 12.9984 78.6948 14.84V19.8259C78.6948 21.6675 77.198 23.1659 75.3585 23.1659ZM21.6415 13.7455C21.0386 13.7455 20.5483 14.2366 20.5483 14.84V19.8259C20.5483 20.4295 21.0388 20.9204 21.6415 20.9204H75.3585C75.9614 20.9204 76.4517 20.4293 76.4517 19.8259V14.84C76.4517 14.2364 75.9612 13.7455 75.3585 13.7455H21.6415Z" fill="#FFE4BB"/>
<path d="M23.3242 77.066C22.7046 77.066 22.2026 76.5634 22.2026 75.9432V22.0432C22.2026 21.423 22.7046 20.9204 23.3242 20.9204C23.9437 20.9204 24.4457 21.423 24.4457 22.0432V75.9432C24.4457 76.5634 23.9437 77.066 23.3242 77.066Z" fill="#FFE4BB"/>
<path d="M73.3178 77.066C72.6983 77.066 72.1963 76.5634 72.1963 75.9432V22.0432C72.1963 21.423 72.6983 20.9204 73.3178 20.9204C73.9374 20.9204 74.4394 21.423 74.4394 22.0432V75.9432C74.4394 76.5634 73.9374 77.066 73.3178 77.066Z" fill="#FFE4BB"/>
<path d="M48.5361 61.3936C47.9166 61.3936 47.4146 60.8911 47.4146 60.2708V52.2171C47.4146 51.5968 47.9166 51.0943 48.5361 51.0943C49.1556 51.0943 49.6576 51.5968 49.6576 52.2171V60.2708C49.6576 60.8911 49.1554 61.3936 48.5361 61.3936Z" fill="#FFE4BB"/>
</svg>
