<svg width="97" height="77" viewBox="0 0 97 77" fill="none" xmlns="http://www.w3.org/2000/svg">
<path d="M11.0084 20.2508C11.0479 27.6426 10.87 35.0344 10.4352 42.4262C9.98066 49.8378 9.1308 57.1703 8.39953 64.5622C8.22165 66.2816 10.6131 67.6849 12.0164 66.6374C12.7872 66.0642 13.2813 65.5899 13.4789 64.6215C13.8149 62.8624 12.0559 61.2813 10.3759 62.2498C10.5143 62.23 10.6526 62.1904 10.8108 62.1707C11.6211 62.981 12.4117 63.7716 13.222 64.5819C14.3881 49.9169 14.1114 34.9554 13.4394 20.2706C13.3603 18.7092 11.0084 18.6894 11.0084 20.2508Z" fill="#CEE8FF"/>
<path d="M22.729 7.04849C21.5431 18.2153 21.4838 29.639 21.385 40.8453C21.3257 46.399 21.2862 51.9528 21.1676 57.5065C21.1083 60.2933 21.0886 63.0602 21.049 65.847C21.0095 68.5547 20.5154 71.4205 20.9107 74.0689C21.1083 75.4326 23.48 75.4326 23.6776 74.0689C24.0334 71.5589 23.5986 68.8907 23.5986 66.3411C23.5986 63.5544 23.6381 60.7874 23.6776 58.0006C23.7567 52.269 23.9346 46.5571 24.2113 40.8453C24.7252 29.639 25.5157 18.2548 25.16 7.04849C25.0809 5.46735 22.8871 5.54641 22.729 7.04849Z" fill="#CEE8FF"/>
<path d="M32.828 8.25414C31.8991 18.2153 32.3339 28.5125 32.571 38.5132C32.6896 43.3949 32.8478 48.2767 33.0256 53.1584C33.1245 55.7673 33.2233 58.3564 33.3616 60.9653C33.4802 63.3567 33.3419 65.8866 33.9743 68.199C34.3498 69.5825 36.7018 69.7604 36.9587 68.199C37.3737 65.8273 37.0575 63.3567 36.9587 60.9653C36.8599 58.3564 36.7808 55.7673 36.682 53.1584C36.5041 48.2767 36.3658 43.3949 36.2274 38.5132C35.931 28.4729 36.0693 18.2351 35.0613 8.25414C34.9032 6.83111 32.9663 6.81135 32.828 8.25414Z" fill="#CEE8FF"/>
<path d="M43.54 21.022C42.7495 29.5997 42.5716 38.1378 42.4728 46.7352C42.4135 50.945 42.453 55.1548 42.4728 59.3448C42.4926 63.6534 42.1566 68.1794 42.71 72.4485C43.0459 75.0969 46.5837 75.1562 46.8802 72.4485C47.3348 68.3178 46.9593 63.9894 46.9593 59.8389C46.9593 55.471 46.979 51.1031 46.9395 46.7352C46.8802 38.1378 46.8407 29.5997 46.2675 21.022C46.1489 19.2432 43.6982 19.263 43.54 21.022Z" fill="#CEE8FF"/>
<path d="M55.2012 1.29704C53.7386 25.7256 53.5212 50.2925 53.3433 74.7606C53.3236 77.4683 57.4938 77.4683 57.5531 74.7606C58.1065 50.2925 58.6204 25.7651 57.8891 1.29704C57.8496 -0.442214 55.3198 -0.422449 55.2012 1.29704Z" fill="#CEE8FF"/>
<path d="M65.1821 19.085C64.7473 27.4848 64.273 35.8056 64.1741 44.2251C64.0753 52.6051 64.2137 60.9851 64.1939 69.3652C64.1939 71.0649 66.8028 71.0649 66.8423 69.3652C67.0004 60.9851 67.3364 52.6249 67.4155 44.2251C67.4945 35.8253 67.2178 27.4848 66.9609 19.085C66.9016 17.9387 65.2414 17.9585 65.1821 19.085Z" fill="#CEE8FF"/>
<path d="M74.0569 2.46322C73.1872 13.5312 73.3453 24.6189 73.2861 35.7264C73.2663 41.1023 73.2465 46.4781 73.2268 51.8738C73.207 57.4868 72.6338 63.4161 73.2861 68.9896C73.5825 71.4799 76.8831 71.4799 77.1796 68.9896C77.8318 63.5939 77.2982 57.803 77.2982 52.3679C77.2982 46.8339 77.2982 41.2801 77.2784 35.7461C77.2587 24.6387 77.4366 13.5509 76.6065 2.48297C76.4879 0.822779 74.1952 0.82279 74.0569 2.46322Z" fill="#CEE8FF"/>
<path d="M84.2945 12.128C84.0178 16.6935 84.2549 21.2788 84.1165 25.8641C83.9782 30.6075 83.9387 35.3312 83.8794 40.0746C83.8399 44.6599 83.7608 49.2254 83.741 53.8107C83.7213 58.3169 83.3457 62.9813 84.1165 67.448C84.3735 68.9106 86.7452 68.8711 87.0219 67.448C87.8718 63.1592 87.6346 58.6529 87.6939 54.3048C87.7532 49.5614 87.7334 44.818 87.7137 40.0943C87.6939 35.509 87.6544 30.9435 87.4765 26.3582C87.3184 21.6346 87.4765 16.8516 87.101 12.1478C86.9626 10.3097 84.3933 10.2899 84.2945 12.128Z" fill="#CEE8FF"/>
<path d="M92.8916 25.666C92.8916 30.0932 92.9114 34.5006 93.0102 38.9278C93.0497 41.0623 93.0102 43.2166 93.3067 45.3116C93.445 46.3591 93.6031 47.4066 93.8403 48.4343C94.0577 49.4028 94.0379 50.5096 94.532 51.3792C94.6704 51.6362 95.1052 51.6559 95.2435 51.3792C95.6784 50.4701 95.5993 49.4226 95.7574 48.4343C95.9155 47.5054 96.0143 46.5963 96.0934 45.6674C96.291 43.4142 96.1329 41.1611 96.0736 38.908C95.9353 34.4808 95.6981 30.0734 95.461 25.6462C95.3621 24.0255 92.8916 24.0058 92.8916 25.666Z" fill="#CEE8FF"/>
<path d="M0 31.5954C0 36.0226 0.0197594 40.43 0.11858 44.8572C0.158109 46.9917 0.118599 49.146 0.415062 51.241C0.553411 52.2885 0.711503 53.3361 0.948674 54.3638C1.16608 55.3322 1.14633 56.439 1.64043 57.3087C1.77878 57.5656 2.2136 57.5854 2.35195 57.3087C2.78676 56.3995 2.70769 55.352 2.8658 54.3638C3.02392 53.4349 3.12274 52.5257 3.20179 51.5968C3.39944 49.3437 3.24133 47.0906 3.18204 44.8375C3.04369 40.4103 2.80652 36.0028 2.56935 31.5757C2.47053 29.955 0 29.9352 0 31.5954Z" fill="#CEE8FF"/>
</svg>
