<svg width="97" height="97" viewBox="0 0 97 97" fill="none" xmlns="http://www.w3.org/2000/svg">
<path d="M40.4886 47.9058C31.9696 47.9058 25.0391 41.4187 25.0391 33.4451C25.0391 25.4714 31.9696 18.9844 40.4886 18.9844C49.0076 18.9844 55.9381 25.4714 55.9381 33.4451C55.9381 41.4187 49.0076 47.9058 40.4886 47.9058ZM40.4886 21.1334C33.1585 21.1334 27.1947 26.6564 27.1947 33.4451C27.1947 40.2337 33.1585 45.7567 40.4886 45.7567C47.8188 45.7567 53.7825 40.2337 53.7825 33.4451C53.7825 26.6564 47.8188 21.1334 40.4886 21.1334Z" fill="#FFE4BB"/>
<path d="M23.6132 60.2969C23.062 60.2969 22.5921 59.8778 22.541 59.3199C22.4761 58.6109 22.4434 57.8897 22.4434 57.176C22.4434 52.6233 23.7991 49.9825 25.5712 47.0033C25.8748 46.4927 26.5357 46.3242 27.0483 46.6272C27.5603 46.93 27.729 47.5891 27.4255 48.0998C25.4712 51.3852 24.5992 53.4754 24.5992 57.176C24.5992 57.8248 24.6292 58.4803 24.688 59.1246C24.7421 59.7156 24.3054 60.2384 23.7126 60.2923C23.6792 60.2956 23.646 60.2969 23.6132 60.2969Z" fill="#FFE4BB"/>
<path d="M40.4898 77.8716C38.3186 77.8716 36.2021 77.4366 34.1999 76.5787C33.653 76.3445 33.4002 75.7126 33.6352 75.1674C33.8701 74.6222 34.5045 74.3706 35.0508 74.6044C36.7829 75.3462 38.6126 75.7225 40.4896 75.7225C40.7484 75.7225 40.9871 75.7159 41.2186 75.7019C41.8123 75.6662 42.3234 76.1177 42.359 76.7102C42.3945 77.3027 41.9416 77.8116 41.3475 77.8471C41.0727 77.8636 40.7922 77.8716 40.4898 77.8716Z" fill="#FFE4BB"/>
<path d="M25.5976 82.5347C22.3561 82.5349 19.0038 81.2233 16.4133 78.6406C14.0628 76.2975 12.6789 73.2637 12.5161 70.099C12.3512 66.8924 13.4553 63.9355 15.6248 61.773C17.7943 59.6104 20.7609 58.5094 23.9765 58.6738C27.1514 58.836 30.1942 60.2158 32.5445 62.5591C34.8951 64.9022 36.279 67.9357 36.4418 71.1006C36.6065 74.3072 35.5025 77.2644 33.333 79.4267C31.2455 81.5079 28.4649 82.5342 25.5976 82.5347ZM23.3544 60.8067C20.9547 60.8067 18.7672 61.6792 17.1489 63.2921C13.5422 66.8879 13.8957 73.0916 17.9374 77.121C21.9793 81.15 28.2014 81.5027 31.809 77.9071C35.4156 74.3113 35.0621 68.1077 31.0204 64.0782C29.048 62.1118 26.5071 60.9546 23.8662 60.8198C23.6946 60.8113 23.5238 60.8067 23.3544 60.8067Z" fill="#FFE4BB"/>
<path d="M53.7056 27.7596C53.2997 27.7596 52.911 27.53 52.7282 27.1391C52.4767 26.6012 52.7099 25.9616 53.2492 25.7108C55.1072 24.8467 56.3077 22.9685 56.3077 20.9258C56.3077 18.0162 53.9332 15.649 51.0148 15.649C48.2748 15.649 46.0098 17.6956 45.7468 20.4096C45.6895 21.0004 45.1658 21.4304 44.5702 21.3756C43.9778 21.3184 43.5439 20.7934 43.6013 20.2027C43.9718 16.3814 47.159 13.5 51.0151 13.5C55.1223 13.5 58.4636 16.8312 58.4636 20.9258C58.4636 23.8002 56.7746 26.4428 54.1609 27.6583C54.0132 27.7273 53.8582 27.7596 53.7056 27.7596Z" fill="#FFE4BB"/>
<path d="M27.2776 27.8271C27.1254 27.8271 26.9707 27.7949 26.8239 27.7266C24.2054 26.5124 22.5132 23.8684 22.5132 20.9908C22.5132 16.8962 25.8547 13.565 29.9619 13.565C33.7824 13.565 36.967 16.4176 37.3693 20.2008C37.4322 20.7909 37.0032 21.32 36.4112 21.3826C35.8182 21.4483 35.2884 21.0174 35.2258 20.4275C34.94 17.7404 32.677 15.714 29.9619 15.714C27.0433 15.714 24.6689 18.0812 24.6689 20.9908C24.6689 23.0358 25.8715 24.915 27.7329 25.7781C28.2727 26.0282 28.5068 26.6673 28.2557 27.2054C28.0731 27.597 27.684 27.8271 27.2776 27.8271Z" fill="#FFE4BB"/>
<path d="M23.5248 58.4299C23.5229 58.4299 23.521 58.4299 23.5195 58.4299C21.511 58.42 19.5884 57.891 17.9593 56.9C15.7933 55.5818 14.3473 53.5733 13.8872 51.2444C12.9116 46.3027 16.6941 41.3815 22.3192 40.275C25.0722 39.7339 27.8379 40.1742 30.1081 41.5142C30.6203 41.8165 30.7895 42.4759 30.4864 42.9865C30.1828 43.4969 29.522 43.6654 29.0095 43.3636C27.196 42.293 24.9683 41.9444 22.7363 42.3834C18.2768 43.2609 15.2561 47.0497 16.0024 50.8294C16.3443 52.5607 17.4379 54.0653 19.0822 55.0661C20.3758 55.853 21.9139 56.2731 23.5298 56.2811C24.1252 56.2841 24.6053 56.7675 24.6025 57.3608C24.5994 57.9522 24.1174 58.4299 23.5248 58.4299Z" fill="#FFE4BB"/>
<path d="M51.4639 43.5132C51.0957 43.5132 50.737 43.325 50.5354 42.9863C50.2321 42.4759 50.4011 41.8168 50.9133 41.514C52.4178 40.6251 54.1846 40.122 56.0229 40.0588C56.6207 40.0412 57.1167 40.5026 57.1372 41.0957C57.1577 41.6889 56.6921 42.1862 56.0971 42.2066C54.6192 42.2573 53.2068 42.6573 52.0123 43.3628C51.8401 43.4647 51.6508 43.5132 51.4639 43.5132Z" fill="#FFE4BB"/>
<path d="M40.4332 43.4424C35.8317 43.4424 32.2627 39.486 32.2627 36.0826C32.2627 32.5659 35.928 29.7047 40.4332 29.7047C44.9385 29.7047 48.6038 32.5657 48.6038 36.0826C48.6038 39.486 45.0347 43.4424 40.4332 43.4424ZM40.4332 31.8537C37.1164 31.8537 34.4184 33.7507 34.4184 36.0826C34.4184 38.4427 37.1013 41.2933 40.4332 41.2933C43.7652 41.2933 46.4482 38.4427 46.4482 36.0826C46.4482 33.7507 43.7497 31.8537 40.4332 31.8537Z" fill="#FFE4BB"/>
<path d="M60.6799 82.541H46.9809C45.7093 82.541 44.6748 81.5097 44.6748 80.2419V66.5849C44.6748 65.3172 45.7093 64.2859 46.9809 64.2859H60.6799C61.9515 64.2859 62.9862 65.3172 62.9862 66.5849V80.2419C62.9864 81.5097 61.9517 82.541 60.6799 82.541ZM46.9809 66.4349C46.898 66.4349 46.8305 66.5022 46.8305 66.5849V80.2419C46.8305 80.3247 46.898 80.3919 46.9809 80.3919H60.6799C60.7631 80.3919 60.8305 80.3247 60.8305 80.2419V66.5849C60.8305 66.5022 60.7631 66.4349 60.6799 66.4349H46.9809Z" fill="#FF8F8F"/>
<path d="M82.1935 82.541H68.4946C67.223 82.541 66.1885 81.5097 66.1885 80.2419V66.5849C66.1885 65.3172 67.223 64.2859 68.4946 64.2859H82.1935C83.4651 64.2859 84.4999 65.3172 84.4999 66.5849V80.2419C84.4999 81.5097 83.4653 82.541 82.1935 82.541ZM68.4946 66.4349C68.4116 66.4349 68.3442 66.5022 68.3442 66.5849V80.2419C68.3442 80.3247 68.4116 80.3919 68.4946 80.3919H82.1935C82.2767 80.3919 82.3442 80.3247 82.3442 80.2419V66.5849C82.3442 66.5022 82.2767 66.4349 82.1935 66.4349H68.4946Z" fill="#FF8F8F"/>
<path d="M71.7132 66.435H58.0142C56.7425 66.435 55.708 65.4037 55.708 64.136V50.479C55.708 49.2113 56.7425 48.18 58.0142 48.18H71.7132C72.9849 48.18 74.0194 49.2113 74.0194 50.479V64.136C74.0194 65.4037 72.9849 66.435 71.7132 66.435ZM58.0142 50.329C57.9312 50.329 57.8637 50.3963 57.8637 50.479V64.136C57.8637 64.2187 57.9312 64.286 58.0142 64.286H71.7132C71.7962 64.286 71.8637 64.2187 71.8637 64.136V50.479C71.8637 50.3963 71.7962 50.329 71.7132 50.329H58.0142Z" fill="#FF8F8F"/>
<path d="M75.4569 50.3292H61.7578C60.4862 50.3292 59.4517 49.2979 59.4517 48.0301V34.3731C59.4517 33.1054 60.4862 32.0741 61.7578 32.0741H75.4569C76.7285 32.0741 77.763 33.1054 77.763 34.3731V48.0301C77.763 49.2979 76.7287 50.3292 75.4569 50.3292ZM61.7578 34.2229C61.6748 34.2229 61.6073 34.2902 61.6073 34.3729V48.0299C61.6073 48.1127 61.6748 48.1799 61.7578 48.1799H75.4569C75.5399 48.1799 75.6073 48.1127 75.6073 48.0299V34.3729C75.6073 34.2902 75.5399 34.2229 75.4569 34.2229H61.7578Z" fill="#FF8F8F"/>
</svg>
