<svg width="97" height="97" viewBox="0 0 97 97" fill="none" xmlns="http://www.w3.org/2000/svg">
<path d="M45.6381 43.1782C44.9076 43.1782 44.1751 43.1487 43.4408 43.0891C33.5931 42.2925 24.1937 38.7609 16.2587 32.8762C15.754 32.5017 15.6485 31.7895 16.023 31.2849C16.3976 30.7806 17.11 30.6751 17.6147 31.0493C25.2072 36.6804 34.2014 40.0596 43.6245 40.8221C48.6849 41.2304 53.6736 40.0921 58.0532 37.5282C63.5026 34.3381 67.4782 29.2438 69.2474 23.1834L69.8599 21.0852C70.0361 20.4826 70.6678 20.1362 71.271 20.3122C71.874 20.4881 72.2203 21.1198 72.0442 21.7228L71.4316 23.821C69.4989 30.4412 65.1557 36.0062 59.2027 39.4911C55.0541 41.9196 50.404 43.1782 45.6381 43.1782Z" fill="#FF8F8F"/>
<path d="M23.0471 49.2964C22.6368 49.2964 22.2409 49.074 22.0377 48.6855C17.4094 39.8289 24.125 35.7715 24.1932 35.7314C24.7364 35.4141 25.4324 35.5972 25.7496 36.1393C26.0659 36.68 25.8852 37.3738 25.3469 37.692C25.1325 37.8212 20.459 40.7516 24.0544 47.632C24.3452 48.1889 24.1297 48.8761 23.5729 49.1668C23.405 49.2548 23.2248 49.2964 23.0471 49.2964Z" fill="#FF8F8F"/>
<path d="M44.5618 55.5085C43.9531 55.5085 43.3452 55.4937 42.7406 55.4641C42.5311 55.4573 42.3559 55.4461 42.1802 55.435L40.9583 55.3524C40.6684 55.3317 40.3783 55.311 40.0893 55.2853L38.4715 55.1129C38.1434 55.0781 37.8036 55.0419 37.4589 54.9869C37.4345 54.9828 37.4104 54.9784 37.3863 54.9728C30.6098 53.4348 25.5073 48.0111 24.3874 41.1557L23.7029 36.9647C23.6369 36.5612 23.793 36.1533 24.1111 35.8965L29.825 31.2849C31.9141 29.6013 34.4125 28.4779 37.0509 28.0356C38.0043 27.8757 38.9798 27.8056 39.9458 27.8238C40.6669 27.8386 41.3049 28.2244 41.653 28.8555C41.9015 29.3056 41.9654 29.8138 41.8471 30.292L43.3464 29.4171C44.2939 28.8643 45.3556 28.5873 46.4098 28.6193C46.5359 28.6232 46.6615 28.625 46.7873 28.6255C46.7992 28.6255 46.8111 28.6255 46.8231 28.6255C48.1622 28.6255 49.5174 28.4303 50.851 28.0445C50.9475 28.0183 51.0242 27.9917 51.1011 27.9658C51.1881 27.9364 51.2752 27.9073 51.3635 27.8809C51.429 27.8584 51.4938 27.8338 51.5585 27.8093C51.6588 27.7715 51.7594 27.734 51.8613 27.7001L52.3446 27.5135L52.8471 27.2906C52.8607 27.2845 52.8744 27.2788 52.8883 27.2734C52.9424 27.2517 53.0175 27.2124 53.0972 27.1708C53.1802 27.1276 53.2635 27.0841 53.3493 27.0441C53.4598 26.9933 53.5747 26.9276 53.6962 26.858L53.7818 26.8089C53.7916 26.8034 53.8017 26.7977 53.8117 26.7925L54.0722 26.6544C54.1052 26.6371 54.1252 26.6232 54.1461 26.6103C54.1918 26.5818 54.2377 26.5534 54.2848 26.5266L54.5284 26.3805C54.5371 26.3755 54.5457 26.3705 54.5543 26.3655C54.6096 26.3343 54.6522 26.3078 54.6841 26.2841C54.703 26.2702 54.7223 26.2568 54.7419 26.2441C55.9959 25.4295 57.1522 24.4167 58.1787 23.2338C58.6677 22.6686 59.138 22.0376 59.6147 21.3069C59.6655 21.2243 59.7191 21.1425 59.7735 21.0606C59.8345 20.9687 59.8921 20.8818 59.9315 20.8094C59.9363 20.8003 59.9415 20.7915 59.9467 20.7824L60.2029 20.3445C60.2075 20.337 60.2121 20.3294 60.2168 20.3217L60.2453 20.2631C60.4924 19.7305 60.8164 19.0369 61.1543 18.345C63.6719 13.1865 69.9169 11.0369 75.0771 13.5523C79.028 15.479 81.351 19.7141 80.8577 24.091C80.8574 24.0919 80.8574 24.0928 80.8574 24.0935C80.7726 24.831 80.6758 25.5684 80.5926 26.1929C80.5907 26.2056 80.5889 26.2183 80.5869 26.2311C80.578 26.2943 80.5719 26.3364 80.5621 26.3876L80.309 27.626C80.2264 28.0497 80.1159 28.4662 80.0094 28.8688L79.9553 29.0736C79.4508 30.9569 78.7656 32.8408 77.918 34.6779C77.0021 36.5939 75.9848 38.3468 74.8878 39.9014C74.2612 40.8111 73.581 41.6659 73.0595 42.3076C73.054 42.3142 73.0486 42.321 73.0431 42.3276C72.7293 42.6961 72.4094 43.0587 72.0874 43.4227L72.0567 43.4575C72.0504 43.4646 72.0439 43.4718 72.0375 43.4787C71.6857 43.8572 71.3302 44.2241 70.9957 44.5678C70.8398 44.7328 70.6585 44.9131 70.4357 45.1238L69.8943 45.6349C69.5227 45.995 69.1216 46.3412 68.7434 46.6642C68.3038 47.0386 67.9302 47.3487 67.5302 47.6496C67.4178 47.7345 67.3046 47.8216 67.1915 47.909C66.9048 48.1301 66.6083 48.3587 66.2898 48.5757C65.8888 48.8566 65.4735 49.1467 65.0533 49.4301C65.0439 49.4363 65.0348 49.4424 65.0255 49.4483L64.7406 49.6292C64.407 49.8414 64.0731 50.0534 63.7336 50.2585C63.2418 50.5431 62.8141 50.789 62.3726 51.0254C62.2297 51.0991 62.1023 51.1657 61.9751 51.2324C61.6556 51.3998 61.325 51.5732 60.9839 51.7358C59.417 52.5006 57.7692 53.1634 56.0956 53.7014C55.3162 53.9521 54.4718 53.8499 53.78 53.4214L49.8685 50.9969L50.5705 52.2865C50.89 52.8729 50.8975 53.5781 50.5905 54.1718C50.2851 54.7628 49.7094 55.1622 49.0502 55.2409C49.0452 55.2416 49.027 55.2437 49.022 55.2444C47.5459 55.42 46.0506 55.5085 44.5618 55.5085ZM37.8534 52.7462C38.1281 52.7888 38.4118 52.8188 38.7115 52.8506L40.3112 53.0212C40.5679 53.0442 40.8441 53.0638 41.1202 53.0831L42.3254 53.1646C42.4799 53.1744 42.6342 53.1844 42.8344 53.1909C44.6812 53.2817 46.5405 53.226 48.3832 53.0272L45.8148 48.3089C45.5679 47.8558 45.6576 47.293 46.0328 46.9388C46.4078 46.5841 46.9753 46.5268 47.4135 46.7987L54.9787 51.4878C55.1025 51.5645 55.2552 51.582 55.3988 51.5358C56.9693 51.0308 58.5157 50.4089 59.995 49.6869C60.3065 49.5384 60.6039 49.3826 60.9188 49.2176C61.0503 49.1487 61.1818 49.08 61.3136 49.012C61.7095 48.8 62.1201 48.5639 62.5756 48.3005C62.8817 48.1155 63.2007 47.9126 63.5195 47.7097L63.7933 47.5357C64.1979 47.2627 64.5977 46.9834 64.9959 46.7042C65.2715 46.5166 65.5289 46.3183 65.8015 46.1081C65.9207 46.0162 66.0402 45.9238 66.1601 45.8335C66.516 45.5655 66.8596 45.2803 67.2662 44.934C67.6302 44.6233 67.9858 44.3163 68.3208 43.9917L68.8718 43.4714C69.0625 43.2908 69.2158 43.1386 69.3532 42.993C69.6861 42.6507 70.0282 42.2981 70.3601 41.9409L70.3815 41.9171C70.6909 41.5665 70.9993 41.218 71.301 40.8634C71.7952 40.2551 72.4353 39.4503 73.0208 38.6007C74.0518 37.1396 75.004 35.498 75.8582 33.7109C76.6455 32.0051 77.2861 30.244 77.7558 28.4904L77.8099 28.2858C77.9116 27.9023 78.0077 27.5402 78.0785 27.1785L78.3306 25.9367C78.3335 25.9165 78.3363 25.8967 78.3397 25.8757C78.4209 25.2657 78.5151 24.5482 78.5968 23.8362C78.9825 20.4134 77.1673 17.1023 74.0795 15.5966C70.0477 13.6299 65.167 15.3107 63.1997 19.3427C62.8702 20.0169 62.5523 20.6973 62.3123 21.2146L62.2624 21.3235C62.2422 21.3674 62.2195 21.4102 62.1937 21.4514L61.9204 21.9148C61.8367 22.0658 61.7487 22.1988 61.6704 22.3167C61.6295 22.3785 61.5884 22.4399 61.5507 22.502C61.5443 22.5127 61.5377 22.5232 61.5309 22.5335C60.9943 23.3574 60.4605 24.0735 59.899 24.7225C58.7387 26.0594 57.4303 27.2062 56.0081 28.1337C55.911 28.2037 55.8047 28.2711 55.6848 28.3393L55.4425 28.4844C55.4338 28.4894 55.4251 28.4944 55.4165 28.4994C55.3947 28.5115 55.3742 28.5249 55.3535 28.5379C55.2793 28.5843 55.2047 28.6295 55.1266 28.6696L54.8294 28.8302C54.6751 28.9187 54.5006 29.019 54.3031 29.1089C54.2587 29.1298 54.2056 29.158 54.1523 29.186C54.0367 29.2465 53.9063 29.3145 53.7527 29.3773L53.2426 29.6036C53.2255 29.6113 53.2082 29.6184 53.1907 29.6252L52.6542 29.8325C52.6346 29.84 52.6148 29.847 52.5947 29.8536C52.5162 29.8789 52.4393 29.9084 52.3624 29.9375C52.2653 29.9741 52.1679 30.0108 52.0686 30.044C52.0548 30.0488 52.0411 30.0529 52.0272 30.057C51.9601 30.0768 51.8939 30.0995 51.8279 30.1216C51.7077 30.1621 51.5872 30.2021 51.4648 30.2351C49.93 30.6789 48.3422 30.9018 46.7803 30.9005C46.6336 30.9 46.4883 30.8975 46.3427 30.8934C45.7153 30.8754 45.0726 31.044 44.4928 31.3818L39.3061 34.4083C38.8563 34.6699 38.2872 34.5947 37.9224 34.2246C37.5574 33.8542 37.4898 33.2839 37.7581 32.8388L39.4115 30.097C38.7468 30.1082 38.0812 30.1686 37.427 30.2785C35.1732 30.6566 33.0384 31.6168 31.2533 33.0551L26.0548 37.2507L26.6325 40.789C27.6007 46.7136 32.003 51.4032 37.8534 52.7462ZM79.7273 23.9636H79.7295H79.7273Z" fill="#FF8F8F"/>
<path d="M85.3623 84.5H17.4886C13.6349 84.5 10.5 81.3661 10.5 77.5136V70.7412C10.5 66.8887 13.6349 63.7548 17.4886 63.7548H85.3623C85.9908 63.7548 86.5 64.2638 86.5 64.8921C86.5 65.5204 85.9908 66.0295 85.3623 66.0295H17.4886C14.8898 66.0295 12.7755 68.1432 12.7755 70.7412V77.5136C12.7755 80.1116 14.8898 82.2253 17.4886 82.2253H85.3623C85.9908 82.2253 86.5 82.7344 86.5 83.3626C86.5 83.9909 85.9908 84.5 85.3623 84.5Z" fill="#FFE4BB"/>
<path d="M27.0074 84.5C23.1539 84.5 20.019 81.3661 20.019 77.5136V70.7412C20.019 66.8887 23.1539 63.7548 27.0074 63.7548C27.6359 63.7548 28.1451 64.2638 28.1451 64.8921C28.1451 65.5204 27.6359 66.0295 27.0074 66.0295C24.4086 66.0295 22.2945 68.1432 22.2945 70.7412V77.5136C22.2945 80.1116 24.4086 82.2253 27.0074 82.2253C27.6359 82.2253 28.1451 82.7344 28.1451 83.3626C28.1451 83.9909 27.6356 84.5 27.0074 84.5Z" fill="#FFE4BB"/>
<path d="M85.2342 84.5C81.3805 84.5 78.2456 81.3661 78.2456 77.5136V70.7412C78.2456 66.8887 81.3805 63.7548 85.2342 63.7548C85.8627 63.7548 86.3719 64.2638 86.3719 64.8921C86.3719 65.5204 85.8627 66.0295 85.2342 66.0295C82.6354 66.0295 80.5211 68.1432 80.5211 70.7412V77.5136C80.5211 80.1116 82.6354 82.2253 85.2342 82.2253C85.8627 82.2253 86.3719 82.7344 86.3719 83.3626C86.3719 83.9909 85.8627 84.5 85.2342 84.5Z" fill="#FFE4BB"/>
<path d="M79.3834 72.0322H36.5806C35.9521 72.0322 35.4429 71.5231 35.4429 70.8948C35.4429 70.2665 35.9521 69.7574 36.5806 69.7574H79.3834C80.0119 69.7574 80.5211 70.2665 80.5211 70.8948C80.5211 71.5231 80.0119 72.0322 79.3834 72.0322Z" fill="#FFE4BB"/>
<path d="M57.2514 78.4165H30.461C29.8325 78.4165 29.3232 77.9074 29.3232 77.2791C29.3232 76.6508 29.8325 76.1417 30.461 76.1417H57.2514C57.8799 76.1417 58.3891 76.6508 58.3891 77.2791C58.3891 77.9074 57.8797 78.4165 57.2514 78.4165Z" fill="#FFE4BB"/>
</svg>
