<svg width="32" height="32" viewBox="0 0 32 32" fill="none" xmlns="http://www.w3.org/2000/svg">
<path d="M24.8479 19.7326H23.6045C23.1599 19.7326 22.7745 19.9553 22.5825 20.2816C22.5455 20.3444 22.5166 20.4112 22.4949 20.4803L21.0649 20.4532L21.0184 20.4523C20.8693 20.4492 20.7378 20.3769 20.6547 20.2662C20.5358 20.1081 20.4116 19.9531 20.2553 19.832C19.7673 19.4552 19.1506 19.2772 18.5167 19.3468L12.6373 19.9915C12.4435 20.0127 12.2948 20.1699 12.2813 20.362C12.2804 20.3715 12.2804 20.3805 12.2804 20.39C12.2804 20.4749 12.2939 20.5608 12.3219 20.6443C12.3441 20.708 12.3748 20.7699 12.4137 20.8278C12.4223 20.8413 12.4313 20.8549 12.4417 20.868C12.654 21.1477 12.9897 21.3139 13.3399 21.3139C13.3805 21.3139 13.4221 21.3112 13.4632 21.3072C14.3456 21.2096 15.6531 21.065 16.3426 20.9891C16.5997 20.9606 16.8301 21.1459 16.8581 21.4029C16.8861 21.6596 16.7018 21.89 16.4456 21.9184C15.7566 21.9948 14.4491 22.1389 13.568 22.2361C13.4949 22.2447 13.4167 22.2487 13.3403 22.2487C12.7006 22.2487 12.087 21.9447 11.6976 21.4337C11.6126 21.3216 11.5412 21.2001 11.4861 21.0709C11.468 21.0293 11.4513 20.9859 11.4369 20.9425C11.3759 20.7596 11.3461 20.5752 11.3461 20.39C11.3461 20.3886 11.3461 20.3873 11.3461 20.3855C11.347 20.1148 11.2092 19.8632 10.9702 19.7358L9.64906 19.0309C8.8358 18.5977 7.89108 18.458 6.98746 18.6383C6.63324 18.7088 6.32963 18.9297 6.15387 19.2451C5.98128 19.5537 5.95236 19.9192 6.0748 20.2477C6.21576 20.6281 6.48505 20.9547 6.83113 21.1662L11.9433 24.2922C12.3649 24.5498 12.8474 24.6858 13.3403 24.6858H22.4935C22.5071 24.7296 22.5224 24.7725 22.5423 24.8132C22.7158 25.1805 23.127 25.4385 23.6054 25.4385H24.8488C25.4836 25.4385 26 24.9826 26 24.4219V20.7483C25.9991 20.1885 25.4822 19.7326 24.8479 19.7326Z" fill="#414249"/>
<path d="M16.1309 17.2554C16.2678 17.4135 16.4585 17.5003 16.6677 17.5003H16.6704C16.8819 17.4993 17.0725 17.4108 17.2094 17.2509L22.0745 11.5472C22.8308 10.6594 23.0124 9.43863 22.548 8.36017C22.0894 7.2948 21.1307 6.62477 19.9853 6.56603C19.923 6.56332 19.8606 6.56152 19.7983 6.56152C18.7144 6.56152 17.6978 7.0418 17.0084 7.88035C16.9117 7.99873 16.7666 8.06649 16.6139 8.06649C16.4603 8.06649 16.3153 7.99873 16.2186 7.88035C15.53 7.0418 14.513 6.56152 13.4287 6.56152C13.3727 6.56152 13.318 6.56243 13.2629 6.56514C12.1184 6.61619 11.1606 7.28531 10.702 8.35384C10.233 9.44541 10.4219 10.6757 11.1936 11.5653L16.1309 17.2554Z" fill="#414249"/>
</svg>
