<svg width="20" height="18" viewBox="0 0 20 18" fill="none" xmlns="http://www.w3.org/2000/svg">
<path fill-rule="evenodd" clip-rule="evenodd" d="M1.23172 2.09117C1.96148 1.07757 3.17163 0.300049 4.9998 0.300049C6.80736 0.300049 8.22745 1.05674 9.18987 2.00034C9.50261 2.30696 9.77537 2.64219 9.99981 2.9869C10.2242 2.64219 10.497 2.30696 10.8097 2.00034C11.7722 1.05674 13.1922 0.300049 14.9998 0.300049C16.828 0.300049 18.0381 1.07757 18.7679 2.09117C19.472 3.06909 19.6998 4.22151 19.6998 5.00005C19.6998 8.79669 17.2705 11.9711 14.9804 14.134C13.8221 15.228 12.6666 16.0943 11.8017 16.6869C11.3686 16.9836 11.0067 17.2129 10.7515 17.3688C10.6239 17.4468 10.5228 17.5066 10.4528 17.5473C10.4177 17.5677 10.3904 17.5833 10.3714 17.5941L10.3492 17.6067L10.3428 17.6102L10.3409 17.6113C10.3406 17.6115 10.3398 17.612 9.9998 17C9.65985 17.612 9.65964 17.6118 9.6594 17.6117L9.65679 17.6102L9.65046 17.6067L9.62822 17.5941C9.6092 17.5833 9.5819 17.5677 9.54686 17.5473C9.47678 17.5066 9.37571 17.4468 9.24807 17.3688C8.99288 17.2129 8.63098 16.9836 8.19789 16.6869C7.33303 16.0943 6.17753 15.228 5.01917 14.134C2.72908 11.9711 0.299805 8.79669 0.299805 5.00005C0.299805 4.22151 0.527659 3.06909 1.23172 2.09117ZM9.9998 17L9.6594 17.6117C9.87081 17.7292 10.1283 17.7294 10.3398 17.612L9.9998 17ZM9.9998 16.1875C10.0069 16.1831 10.0142 16.1787 10.0215 16.1742C10.2585 16.0294 10.5997 15.8134 11.0104 15.532C11.833 14.9683 12.9275 14.1471 14.0192 13.1161C16.2291 11.029 18.2998 8.20341 18.2998 5.00005C18.2998 4.44558 18.1277 3.59801 17.6317 2.90917C17.1615 2.25603 16.3716 1.70005 14.9998 1.70005C13.6074 1.70005 12.5275 2.27685 11.7899 3.00001C11.0227 3.75217 10.6998 4.58313 10.6998 5.00005C10.6998 5.38665 10.3864 5.70005 9.9998 5.70005C9.6132 5.70005 9.2998 5.38665 9.2998 5.00005C9.2998 4.58313 8.97691 3.75217 8.20974 3.00001C7.47216 2.27685 6.39225 1.70005 4.9998 1.70005C3.62798 1.70005 2.83813 2.25603 2.36789 2.90917C1.87195 3.59801 1.6998 4.44558 1.6998 5.00005C1.6998 8.20341 3.77053 11.029 5.98044 13.1161C7.07207 14.1471 8.16658 14.9683 8.98922 15.532C9.39988 15.8134 9.74111 16.0294 9.9781 16.1742C9.98544 16.1787 9.99267 16.1831 9.9998 16.1875Z" fill="#414249"/>
</svg>
