<svg width="18" height="18" viewBox="0 0 18 18" fill="none" xmlns="http://www.w3.org/2000/svg">
<path fill-rule="evenodd" clip-rule="evenodd" d="M0.299805 1.00005C0.299805 0.613449 0.613205 0.300049 0.999805 0.300049H4.9998C5.32101 0.300049 5.601 0.518657 5.6789 0.830274L6.6789 4.83027C6.74321 5.0875 6.65667 5.35898 6.45536 5.53153L3.52269 8.04524L9.95294 14.6255L12.4575 11.5574C12.629 11.3473 12.9065 11.2552 13.1696 11.3209L17.1696 12.3209C17.4812 12.3989 17.6998 12.6788 17.6998 13V17C17.6998 17.3866 17.3864 17.7001 16.9998 17.7001C14.157 17.7001 11.7499 17.1895 9.72417 16.3185C9.72386 16.3184 9.72354 16.3182 9.72323 16.3181C5.68206 14.58 3.23534 11.4471 1.85794 8.27934M0.299805 1.00005C0.299805 2.98504 0.716117 5.65516 1.85786 8.27917ZM2.78526 6.83342C2.10685 4.99683 1.79279 3.18346 1.7179 1.70005H4.45326L5.21578 4.75012L2.78526 6.83342ZM11.1498 15.3733L13.2611 12.7869L16.2998 13.5466V16.2889C14.3358 16.2255 12.6297 15.8957 11.1498 15.3733Z" fill="#414249"/>
</svg>
