<svg width="18" height="18" viewBox="0 0 18 18" fill="none" xmlns="http://www.w3.org/2000/svg">
<path fill-rule="evenodd" clip-rule="evenodd" d="M5.05336 0.885715C5.98761 0.498736 6.98894 0.299561 8.00016 0.299561C9.01139 0.299561 10.0127 0.498736 10.947 0.885715C11.8812 1.27269 12.7301 1.8399 13.4451 2.55494C14.1602 3.26999 14.7274 4.11887 15.1144 5.05312C15.5013 5.98737 15.7005 6.98869 15.7005 7.99992C15.7005 9.01114 15.5013 10.0125 15.1144 10.9467C14.817 11.6647 14.4131 12.3322 13.9176 12.9274L17.4951 16.5049C17.7685 16.7783 17.7685 17.2215 17.4951 17.4949C17.2218 17.7683 16.7786 17.7683 16.5052 17.4949L12.9276 13.9173C11.5498 15.0647 9.80777 15.7003 8.00016 15.7003C5.9579 15.7003 3.99928 14.889 2.55519 13.4449C1.11109 12.0008 0.299805 10.0422 0.299805 7.99992C0.299805 5.95766 1.11109 3.99904 2.55519 2.55494C3.27023 1.8399 4.11911 1.27269 5.05336 0.885715ZM12.4552 12.4549C13.0402 11.8699 13.5043 11.1754 13.8209 10.411C14.1376 9.64657 14.3005 8.82729 14.3005 7.99992C14.3005 7.17254 14.1376 6.35327 13.8209 5.58888C13.5043 4.82448 13.0402 4.12993 12.4552 3.54489C11.8701 2.95985 11.1756 2.49577 10.4112 2.17915C9.64681 1.86252 8.82754 1.69956 8.00016 1.69956C7.17279 1.69956 6.35351 1.86252 5.58912 2.17915C4.82472 2.49577 4.13018 2.95985 3.54514 3.54489C2.36359 4.72644 1.6998 6.32896 1.6998 7.99992C1.6998 9.67088 2.36359 11.2734 3.54514 12.4549C4.72668 13.6365 6.3292 14.3003 8.00016 14.3003C9.67112 14.3003 11.2736 13.6365 12.4552 12.4549Z" fill="#414249"/>
</svg>
