<svg width="24" height="24" viewBox="0 0 24 24" fill="none" xmlns="http://www.w3.org/2000/svg">
<path fill-rule="evenodd" clip-rule="evenodd" d="M2.2998 4.00005C2.2998 3.61345 2.61321 3.30005 2.9998 3.30005H4.9998C5.34199 3.30005 5.63403 3.54744 5.69028 3.88497L6.09279 6.30005H20.9998C21.2248 6.30005 21.4361 6.40821 21.5677 6.59075C21.6992 6.77329 21.735 7.00794 21.6639 7.22141L18.6639 16.2214C18.5686 16.5072 18.3011 16.7 17.9998 16.7H6.9998C6.65762 16.7 6.36558 16.4527 6.30933 16.1151L4.40682 4.70005H2.9998C2.61321 4.70005 2.2998 4.38665 2.2998 4.00005ZM6.32613 7.70005L7.59279 15.3H17.4953L20.0286 7.70005H6.32613Z" fill="#414249"/>
<path fill-rule="evenodd" clip-rule="evenodd" d="M11.4001 20.0001C11.4001 21.3256 10.3256 22.4001 9.0001 22.4001C7.67461 22.4001 6.6001 21.3256 6.6001 20.0001C6.6001 18.6746 7.67461 17.6001 9.0001 17.6001C10.3256 17.6001 11.4001 18.6746 11.4001 20.0001ZM10.0001 20.0001C10.0001 20.5524 9.55238 21.0001 9.0001 21.0001C8.44781 21.0001 8.0001 20.5524 8.0001 20.0001C8.0001 19.4478 8.44781 19.0001 9.0001 19.0001C9.55238 19.0001 10.0001 19.4478 10.0001 20.0001Z" fill="#414249"/>
<path fill-rule="evenodd" clip-rule="evenodd" d="M18.4001 20.0001C18.4001 21.3256 17.3256 22.4001 16.0001 22.4001C14.6746 22.4001 13.6001 21.3256 13.6001 20.0001C13.6001 18.6746 14.6746 17.6001 16.0001 17.6001C17.3256 17.6001 18.4001 18.6746 18.4001 20.0001ZM17.0001 20.0001C17.0001 20.5524 16.5524 21.0001 16.0001 21.0001C15.4478 21.0001 15.0001 20.5524 15.0001 20.0001C15.0001 19.4478 15.4478 19.0001 16.0001 19.0001C16.5524 19.0001 17.0001 19.4478 17.0001 20.0001Z" fill="#414249"/>
</svg>
