<svg width="33" height="32" viewBox="0 0 33 32" fill="none" xmlns="http://www.w3.org/2000/svg">
<path d="M16.1265 9.46856C16.2661 9.76083 16.6825 9.75935 16.8196 9.46607C16.8642 9.37049 16.9082 9.27639 16.9523 9.1823C17.9237 7.10588 20.2368 5.78316 22.4654 6.02939C24.9296 6.30164 26.9045 7.98569 27.4139 10.2988C27.8363 12.2191 27.4125 13.9988 26.397 15.6518C25.6248 16.9085 24.5888 17.9389 23.5138 18.9313C21.9884 20.3396 20.3844 21.6624 18.9331 23.1512C18.0953 24.0105 17.3061 24.9114 16.5989 25.8823C16.5209 25.9899 16.4738 26.0709 16.3512 25.9063C14.8173 23.8484 12.9335 22.1323 11.0118 20.4532C9.78512 19.3812 8.54848 18.3188 7.50051 17.0616C6.44753 15.7979 5.74137 14.3836 5.49765 12.7366C5.13932 10.3113 6.0907 8.07829 8.05452 6.84915C10.8566 5.09552 14.5546 6.16901 15.9729 9.14777C16.0239 9.25337 16.0749 9.36046 16.1265 9.46856Z" fill="#414249"/>
</svg>
